PathFileType	4	(X/Y/Z)	/home/abdul/Desktop/myosuite/custom_workspace/IK/output/S12_12_1.trc
DataRate	CameraRate	NumFrames	NumMarkers	Units	OrigDataRate	OrigDataStartFrame	OrigNumFrames
200.0	200.0	62	3	mm	200.0	261	2082
Frame#	Time	V_Shoulder			V_Elbow			V_Wrist		
		X1	Y1	Z1	X2	Y2	Z2	X3	Y3	Z3

261	1.3	2.8371781558360394	714.2779488360123	267.2866018459412	-84.45617345554653	626.4411059270446	10.478890797177261	-54.085461493135675	419.79000190392287	93.60623114787836
262	1.305	3.1730510005727504	714.2303976109903	267.44629586154906	-84.53196850557481	626.0568917477747	10.829284771365211	-53.47169972615504	418.7872356083203	93.16275156503593
263	1.31	3.508051452798627	714.1809309046142	267.6034131000019	-84.60419325689107	625.678840461143	11.176020702579848	-52.86164642259419	417.7975289078906	92.70483083353393
264	1.315	3.8421091257758984	714.1295400911536	267.7579689435763	-84.67273148675767	625.3068457371812	11.518924167624236	-52.25566562451471	416.8209405911794	92.23318681122163
265	1.32	4.175154311392271	714.0762186974331	267.9099803506026	-84.7374747772455	624.9408020466701	11.857826770831805	-51.65411870515304	415.8575179721865	91.74852871495308
266	1.325	4.507118010683737	714.0209624473226	268.0594657951805	-84.79832271251351	624.580605035424	12.192566380930964	-51.05736335186198	414.90729739805613	91.25155622094496
267	1.33	4.837931963419358	713.9637693003988	268.2064452056606	-84.85518304961116	624.2261518669395	12.52298735100733	-50.465752569434656	413.9703047551397	90.7429586522742
268	1.335	5.167528676724532	713.9046394846731	268.3509399020122	-84.90797186250151	623.8773415331492	12.848940721303558	-49.87963370702445	413.046555971315	90.2234142522864
269	1.34	5.495841452721322	713.8435755233031	268.49297253219675	-84.95661365911181	623.5340751331653	13.170284404658078	-49.29934751171204	412.13605751247286	89.69358954226647
270	1.345	5.822804415166634	713.7805822552368	268.632567007667	-85.00104147132554	623.1962561200461	13.486883354443664	-48.72522721160533	411.2388068711117	89.15413876132848
271	1.35	6.14835253507128	713.7156668497493	268.76974843811166	-85.04119691793653	622.8637905157545	13.798609714924567	-48.15759763119053	410.35479304503076	88.6057033861141
272	1.355	6.472421655285399	713.6488388148697	268.90454306556416	-85.07703024069045	622.5365870946123	14.105342954006538	-47.59677434148317	409.48399700416746	88.04891172754908
273	1.36	6.794948514038118	713.5801099997129	269.0369781979927	-85.10850031364092	622.2145575356819	14.406969978407295	-47.04306284735733	408.626392143699	87.48437860159777
274	1.365	7.115870767421865	713.509494590753	269.1670821424894	-85.13557462614747	621.8976165446297	14.70338523132576	-46.49675781425955	407.7819447216108	86.91270507067605
275	1.37	7.435127010814319	713.437009102101	269.29488413817467	-85.15822923993883	621.5856819457418	14.99449077273635	-45.95814233634104	406.9506142790293	86.33447825213553
276	1.375	7.752656799233493	713.3626723598705	269.4204142889293	-85.1764487207583	621.2786747448728	15.28019634247991	-45.42748724786848	406.1323540417277	85.75027119001555
277	1.38	8.068400666624088	713.2865054807361	269.54370349607007	-85.190226045197	620.976519164212	15.560419406365119	-44.90505047959996	405.32711130133293	85.16064278607693
278	1.385	8.382300144075767	713.2085318448044	269.66478339107704	-85.19956248340594	620.6791426498515	15.835085185533812	-44.39107646163799	404.53482777489273	84.5661377859796
279	1.39	8.694297776976535	713.1287770629497	269.78368626848504	-85.20446745845872	620.3864758532244	16.10412666938002	-43.88579557409665	403.75543994160455	83.96728681634832
280	1.395	9.004337141106896	713.0472689387701	269.90044501904396	-85.2049583832125	620.0984525875733	16.36748461234648	-43.38942364674507	402.98887935565995	83.3646064683839
281	1.4	9.312362857682826	712.9640374253448	270.01509306325676	-85.20106047558608	619.8150097606801	16.6251075149531	-42.902161508613844	402.23507293431715	82.75859942362263
282	1.405	9.618320607357914	712.8791145769907	270.1276642853954	-85.19280655323992	619.5360872851584	16.87695158944022	-42.424194588375535	401.49394322048545	82.14975461742128
283	1.41	9.922157143197337	712.7925344962268	270.2381929680984	-85.18023680870442	619.2616279676749	17.12298071043521	-41.95569256613492	400.7654086192748	81.53854743575191
284	1.415	10.223820302638329	712.7043332761722	270.346713727647	-85.16339856605757	618.9915773785195	17.363166351074145	-41.496809077089196	400.04938360815015	80.92543994092357
285	1.42	10.523259018453885	712.6145489386132	270.453261450017	-85.14234602030396	618.7258837029908	17.59748750503147	-41.047681467343104	399.34577892050754	80.31088112191043
286	1.425	10.82042332873822	712.5232213679938	270.5578712278007	-85.11713996065204	618.4644975761073	17.825930594929446	-40.6084306019895	398.6545017026793	79.69530716505275
287	1.43	11.115264385934273	712.4303922415805	270.6605782980885	-85.08784747892513	618.2073719021867	18.048489367616323	-40.17916072539207	397.97545564456027	79.07914174100964
288	1.435	11.407734464925047	712.3361049560759	270.76141798139946	-85.05454166437713	617.9544616608605	18.265164776817667	-39.75995937343416	397.308541084236	78.46279630397714
289	1.44	11.697786970211986	712.2404045509547	270.8604256217457	-85.01730128621114	617.705723701112	18.475964853679127	-39.35089733732685	396.6536550871763	77.84667039934148
290	1.445	11.985376442204826	712.143337628802	270.95763652791425	-84.97621046512361	617.4611165249403	18.68090456573173	-38.95202867840029	396.0106915007408	77.2311519761119
291	1.45	12.270458562648328	712.0449522729459	271.0530859160445	-84.93135833521397	617.2206000622523	18.880005664821933	-38.56339079313564	395.37954098491946	76.61661770067101
292	1.455	12.552990159212252	711.9452979626703	271.14680885357944	-84.88283869761315	616.9841354385887	19.073296524559566	-38.18500452753194	394.7600910204013	76.00343326858778
293	1.46	12.832929209271574	711.8444254863067	271.2388402046627	-84.83074966719145	616.7516847372784	19.260811967846127	-37.81687433974193	394.1522258952277	75.39195371146073
294	1.465	13.110234842904438	711.7423868524953	271.3292145770534	-84.77519331370965	616.523210757603	19.44259308505476	-37.45898850975604	393.5558266714394	74.78252369599113
295	1.47	13.384867345135747	711.6392351999148	271.41796627062416	-84.71627529877432	616.2986767705299	19.618687043441614	-37.111319394762916	392.9707711332735	74.17547781272935
296	1.475	13.656788157454317	711.5350247057748	271.5051292275075	-84.65410450995196	616.0780462735465	19.789146888375555	-36.77382372867035	392.3969337185955	73.57114085218754
297	1.48	13.925959878631621	711.4298104933632	271.5907369839511	-84.58879269338357	615.861282746095	19.954031336980332	-36.446442964132444	391.83418543537323	72.96982806626727
298	1.485	14.192346264869983	711.3236485389376	271.67482262393906	-84.52045408622621	615.6483494070669	20.113404564789445	-36.12910365529729	391.282393765107	72.37184541321157
299	1.49	14.455912229307657	711.2165955782488	271.75741873463284	-84.44920505022594	615.4392089757741	20.267335986019912	-35.82171787936687	390.7414225552232	71.7774897845515
300	1.495	14.716623840907843	711.1087090129728	271.8385573636833	-84.3751637077018	615.2338234377614	20.415900028076013	-35.52418369494581	390.2111319025141	71.18704921277967
301	1.5	14.974448322757999	711.0000468173306	271.91826997846096	-84.29844958119074	615.0321538167736	20.55917590089842	-35.23638563505043	389.6913780297725	70.60080305874357
302	1.505	15.22935404980513	710.890667445156	271.99658742724733	-84.21918323796979	614.8341599541286	20.697247361777688	-34.95819523255437	389.1820131578147	70.01902217800856
303	1.51	15.481310546051814	710.7806297376796	272.07353990242933	-84.13748594063398	614.6398002966887	20.83020247625362	-34.68947157576164	388.6828853751156	69.44196906569331
304	1.515	15.730288481236878	710.6699928322691	272.1491569057318	-84.05347930486721	614.4490316945524	20.95813337572364	-34.430061891724534	388.19383850729605	68.86989797952631
305	1.52	15.97625966702339	710.5588160723781	272.22346721552236	-83.96728496549787	614.2618092095192	21.08113601238365	-34.17980215486103	387.7147119886979	68.30305504111142
306	1.525	16.219197052715675	710.4471589189234	272.296498856219	-83.87902425188298	614.0780859353071	21.19930991212413	-33.93851771837585	387.24534073826453	67.74167831562002
307	1.53	16.459074720525834	710.3350808633191	272.3682790698252	-83.78881787361172	613.8978128304275	21.312757926001915	-33.706023965950905	386.7855550419111	67.1859978703477
308	1.535	16.69586788040893	710.2226413423708	272.4388342896171	-83.6967856174653	613.7209385645415	21.421585980904432	-33.482126981144624	386.3351804435194	66.63623581278186
309	1.54	16.92955286448478	710.1098996552277	272.508190116	-83.60304605651112	613.5474093790434	21.525902830017856	-33.26662423192591	385.89403764662273	66.09260630902403
310	1.545	17.160107121062985	709.9969148825763	272.5763712945518	-83.50771627214952	613.377168962533	21.62581980370357	-33.05930526776733	385.4619424287711	65.55531558359387
311	1.55	17.38750920828655	709.8837458082486	272.64340169626377	-83.4109115898675	613.210158341758	21.721450561378543	-32.85995242673286	385.0387055704699	65.02456190181238
312	1.555	17.6117387874081	709.7704508433964	272.7093042999879	-83.31274532938895	613.046315788522	21.812910844984373	-32.66834155001887	384.62413280047974	64.50053553611687
313	1.56	17.832776615711452	709.657087953383	272.7741011770954	-83.21332856984375	612.8855767429691	21.900318234617334	-32.48424270144145	384.2180247591467	63.98341871780074
314	1.565	18.050604539090077	709.5437145875185	272.8378134783477	-83.11276993050902	612.7278737535726	21.983791906876856	-32.30742088940971	383.82017698130056	63.473385575795746
315	1.57	18.265205484292803	709.4303876117543	272.90046142297723	-83.01117536760533	612.5731364340745	22.063452396473508	-32.13763678898128	383.4303799001182	62.97060206422299
316	1.575	18.476563450845877	709.3171632444424	272.9620642899715	-82.90864798756002	612.4212914375314	22.13942136161885	-31.97464746166368	383.0484188732037	62.475225880530786
317	1.58	18.68466350265962	709.2040969952459	273.0226404115523	-82.805287877077	612.2722624475499	22.21182135369916	-31.818207070701426	382.6740742319744	61.98740637611303
318	1.585	18.88949175932679	709.0912436072721	273.0822071688342	-82.70119195027999	612.1259701867066	22.28077559171237	-31.6680675896747	382.3071213552839	61.50728446136017
319	1.59	19.09103538711893	708.9786570024921	273.1407809896479	-82.59645381312342	611.9823324420714	22.346407741923574	-31.52397950232795	381.94733076804084	61.03499250713611
320	1.595	19.289282589686163	708.866390230491	273.19837734850586	-82.49116364519259	611.8412641076784	22.40884170316841	-31.385692491647664	381.5944682654125	60.570654244699284
321	1.6	19.484222598465305	708.7544954205765	273.2550107686877	-82.38540809894235	611.7026772437068	22.468201398205906	-31.25295611631449	381.2482950630267	60.11438466609354
322	1.605	19.675845662800494	708.6430237372732	273.31069482641635	-82.27927021635247	611.5664811520721	22.524610571493593	-31.12552047276661	380.9085679734076	59.666289927025424
